<svg width="92" height="24" viewBox="0 0 92 24" fill="none" xmlns="http://www.w3.org/2000/svg">
<path d="M21.7417 9.51067C21.6063 10.3458 21.0011 11.1069 20.3702 11.7517C20.2725 11.8539 20.1748 11.9561 20.0754 12.0565C19.5199 12.6274 18.9541 13.1823 18.3987 13.311C18.769 12.0442 18.0918 9.39616 19.0159 8.35667C19.2974 8.05513 19.6717 7.86281 20.0754 7.81226C20.9874 7.68717 21.9749 8.20691 21.7417 9.51067ZM23.3276 8.20692C23.2134 7.86596 23.056 7.54192 22.8595 7.24319C22.3452 6.44508 21.5292 5.83373 20.3839 5.92534C20.2785 5.93862 20.1749 5.96464 20.0754 6.00286C19.6073 6.16671 19.1873 6.53141 18.745 6.49618C18.9781 5.10256 18.3147 3.57153 17.2295 4.47007C17.2518 7.64137 16.8472 11.2214 17.0066 14.2606C16.5506 14.8438 15.6745 14.9653 15.4036 15.7564C15.798 15.6172 15.5648 15.9467 15.6625 16.0348C16.0328 16.3871 16.5506 15.9343 17.0066 16.1105C16.7717 19.2818 17.0237 19.7187 17.1609 22.5183C17.1849 22.9993 16.9637 23.6335 17.3581 24C18.4913 24 18.3867 22.2769 18.3867 21.4665C18.3867 18.7691 18.0712 17.9851 18.4038 15.071C18.9823 14.8315 19.5428 14.5483 20.0805 14.2236C20.8378 13.7737 21.4833 13.1496 21.9663 12.4001C22.3093 11.8816 22.6098 11.3347 22.8647 10.7651C23.2159 9.96258 23.3763 9.08573 23.3327 8.20692" fill="white"/>
<path d="M12.3661 0.809289C10.8763 0.227884 8.68187 0.125695 6.69832 0.162693C5.21709 0.201454 3.63985 -0.365857 2.66779 0.416398C2.02661 3.25471 5.09537 2.36851 7.03091 2.47598C6.89376 6.68148 6.96919 10.6967 7.91725 13.9015C6.16686 13.787 4.30675 14.0283 2.56836 13.6108C1.99061 13.4839 1.53972 13.0029 0.915687 13.1791C0.80345 13.2822 0.714573 13.4092 0.655329 13.5514C0.596086 13.6935 0.567918 13.8473 0.572809 14.0019V14.1041C0.598467 14.4935 0.677539 14.8773 0.80768 15.244C3.01238 16.3592 5.98342 16.2218 8.70758 16.0051C9.00417 16.8649 9.42248 17.5908 10.1734 18.0171C10.3225 17.6383 10.3225 17.7511 10.7426 17.8286C11.0632 17.1697 10.8283 16.3592 10.7289 15.7637C11.334 15.8906 11.6426 15.6757 12.1826 15.7267C12.4552 15.7884 12.1466 15.1982 12.5427 15.3955C13.5027 15.3585 14.4388 15.3057 14.2914 14.0019C13.1204 13.6865 10.9877 13.6989 9.81679 13.8768C8.9596 10.8236 8.68358 6.63039 9.26304 2.5905C11.0374 2.72969 12.7004 2.98339 13.7856 3.75508C13.7239 2.78078 14.4028 3.97178 14.7114 3.33928C14.7491 2.04609 13.2919 1.15989 12.3678 0.804004" fill="white"/>
<path d="M27.797 12.3596C27.5501 12.5357 27.3169 12.689 27.0958 12.8423C25.7637 13.6774 24.7539 13.9699 24.5928 13.9188C23.9276 13.8924 25.1482 12.7031 25.3574 12.5093C25.8969 12.0616 26.4794 11.6714 27.0958 11.3448C28.0318 10.8391 29.0433 10.448 29.7942 10.3335C29.8439 10.7757 28.0798 12.1569 27.797 12.3596ZM47.1696 16.0823C45.7518 15.0076 45.3455 13.5999 44.7694 11.4593C44.4488 10.2824 44.0545 7.9356 42.6024 8.11178C42.0453 8.96098 41.4778 9.68334 40.948 10.5185C40.468 11.2919 40.036 12.1147 39.4051 12.7472C39.1822 11.5315 39.2954 10.0375 38.8633 9.02441C38.481 9.02441 38.4313 8.71961 37.9753 8.79537C36.7187 10.5061 35.7946 12.608 34.1299 13.8624C33.7031 14.1582 33.2324 14.3807 32.7361 14.5213C32.3675 12.9357 32.515 10.8726 32.0109 9.41201C31.4966 9.29749 31.308 8.88347 30.9617 8.61391C29.3965 8.70024 28.3987 9.1953 27.0924 9.98108C26.9569 10.0568 26.8095 10.1467 26.6603 10.2348C25.6128 10.8673 23.7459 11.8293 22.8647 13.1594C22.5584 13.5898 22.3944 14.1097 22.3966 14.6429C22.3966 15.1855 22.5801 15.5027 22.8647 15.6683C23.6653 16.1105 25.2802 15.2877 25.9711 14.9213C26.3655 14.7187 26.7358 14.5037 27.0924 14.287C28.4227 13.4907 29.5816 12.6291 30.8143 11.7535C30.9617 13.6792 31.0989 17.2011 33.3653 16.4171C34.1059 16.1493 35.1037 15.36 35.7946 14.694C36.5575 13.9329 37.113 12.9322 37.8021 12.4036C37.9376 13.3656 38.2479 15.3547 39.0862 15.5203C39.8731 15.6718 40.1817 14.8349 40.588 14.2148C40.8332 13.836 41.1315 13.3902 41.3646 13.0502C41.9938 12.1129 42.4499 11.1633 42.9179 10.7316C43.5213 13.0995 44.1745 15.4322 45.7518 16.8875C45.8632 16.2796 46.3689 17.2804 46.9981 17.0408C47.0581 16.8381 47.1199 16.6338 47.1696 16.4312C47.1953 16.3307 47.2073 16.2303 47.2313 16.1264C47.2089 16.1175 47.1881 16.105 47.1696 16.0894" fill="white"/>
<path d="M52.2579 8.6879C52.7276 8.40777 53.2316 8.25624 53.6637 8.38486C54.4026 8.61213 53.3311 9.21997 52.2579 9.70095C51.4813 10.0533 50.7046 10.3476 50.6069 10.3863C50.8161 9.90357 51.507 9.15302 52.2579 8.6879ZM53.3311 14.6922C52.9729 14.7047 52.6143 14.6917 52.2579 14.6535C50.2486 14.4773 48.4005 13.6528 49.436 11.8028C50.3888 11.716 51.3327 11.5468 52.2579 11.2972C53.3311 10.9924 54.2929 10.5378 54.9203 9.8789C55.2632 9.52654 55.8941 8.49762 55.8341 7.97787C55.7106 6.96482 54.0083 6.82563 52.9985 7.09696C52.7454 7.16104 52.4977 7.24588 52.2579 7.35066C50.7784 7.95849 49.4857 9.17417 48.6217 10.011C48.0182 9.94585 47.4764 9.93352 47.1799 10.1996L47.1679 10.2136C47.0904 10.5299 47.0945 10.8615 47.1799 11.1756C47.289 11.4899 47.4708 11.7722 47.7096 11.9984C47.6993 12.5269 47.5502 13.1383 47.6376 13.5699C47.7717 14.0514 47.9927 14.5026 48.2891 14.9001C48.9748 15.7088 50.6309 16.2673 52.2579 16.3307C52.8077 16.3598 53.3589 16.3178 53.8985 16.2056C53.8728 16.2056 54.0443 16.1264 54.082 16.1158C55.1432 15.5961 56.0432 15.545 56.3998 14.583C55.7346 14.2535 54.5397 14.6729 53.3311 14.6975" fill="white"/>
<path d="M82.4311 11.2197C82.0368 11.9561 80.8539 12.9692 80.2024 13.4748C80.0927 13.5523 80.007 13.6281 79.9333 13.6792C78.3903 14.805 77.1902 15.034 77.6291 12.8564C77.7886 12.1517 78.9835 11.195 80.2007 10.6136C81.0579 10.1943 81.9391 9.95466 82.4448 10.1203C83.098 10.3352 82.9009 10.3105 82.4208 11.2197M90.5179 14.9336C90.4202 14.805 90.4819 14.7292 90.211 14.6676C89.9976 14.5888 89.7693 14.5622 89.5441 14.59C89.0847 14.6229 88.6237 14.5581 88.1898 14.3998C87.8527 14.2765 87.5229 14.133 87.2023 13.9699C86.2662 13.4413 85.5633 12.2979 85.5136 10.9748C85.5016 10.6224 85.2067 10.418 85.2427 10.0938C85.4039 9.24464 85.2187 9.77671 84.9101 9.34682C84.7987 9.19531 84.2947 9.15655 84.1335 9.04203C83.0003 8.25801 81.7334 8.67556 80.3996 9.15654C80.3259 9.18121 80.2641 9.20763 80.2007 9.2323C78.9681 9.73971 77.7611 10.8039 76.8748 11.4117C74.4095 13.0696 72.0059 16.6972 71.1676 9.30807C70.8967 9.32216 70.7476 9.00503 70.4647 8.99269C69.7875 8.95393 69.1343 10.2084 68.6526 10.9307C68.0491 11.8433 67.7045 12.8687 67.1851 13.2634C66.8662 12.3825 66.8662 11.5385 66.7067 10.2683C66.5953 9.35563 66.5199 7.77351 65.6781 7.72242C65.0352 7.68366 64.6289 8.81123 64.334 9.31864C63.2043 11.2848 62.0299 13.3374 60.4064 14.28C60.2229 12.7454 60.0446 12.3419 60.3515 10.7792C60.7218 8.96627 61.651 6.79745 59.6075 7.289C59.0589 8.30734 58.3028 9.49129 57.5708 10.6101C57.4334 10.7948 57.3405 11.0103 57.2999 11.239C57.2142 11.5121 57.3102 11.4963 57.3668 11.6478C57.5228 12.0777 57.0239 13.8606 58.2702 11.8662C58.3868 11.6795 58.8017 11.1298 58.9354 10.8955C58.7784 11.7394 58.7094 12.5982 58.7297 13.4572C58.7674 14.3681 59.0383 16.255 60.0241 16.3959C61.0527 16.521 62.3796 14.8367 62.9385 14.1408C63.3705 13.5964 63.6534 13.0255 63.998 12.5305C64.1694 12.2909 64.418 12.0741 64.5775 11.8257C64.7369 11.5773 64.8123 11.1404 65.1587 11.0276C65.3541 13.0414 65.7004 14.916 67.1799 15.7529C67.8811 15.4357 68.3491 14.8526 68.7812 14.1672C69.2132 13.4818 69.4669 12.6467 70.0498 12.1147C70.062 12.3785 70.1249 12.6371 70.235 12.8758C70.5178 13.6616 70.8281 14.0897 71.435 14.7116C72.1739 15.4586 72.582 15.7264 73.6535 15.7264C74.2209 15.7264 75.1964 14.775 75.8976 14.4068C76.033 15.1679 76.6725 15.6401 77.3497 15.9537C78.3372 16.3854 79.3229 16.1827 80.2093 15.6753C81.2105 15.1168 82.0951 14.1795 82.7243 13.3849C82.8957 13.17 83.1443 12.8652 83.3895 12.5234C83.6346 12.1816 83.7718 12.2327 83.9449 11.9156C84.0597 12.303 84.1953 12.6835 84.3512 13.0555C84.5443 13.4073 84.7712 13.7384 85.0284 14.0439C86.3862 15.7299 88.2583 15.9449 90.2539 15.8427C92.5614 15.7423 90.8093 15.286 90.5265 14.9318" fill="white"/>
</svg>
